<svg width="148" height="148" viewBox="0 0 148 148" fill="none" xmlns="http://www.w3.org/2000/svg">
<path fill-rule="evenodd" clip-rule="evenodd" d="M72.9232 147.434C69.1498 147.398 65.3788 147.073 61.6459 146.459L1.11212 85.9257C0.498449 82.1929 0.173553 78.4218 0.137462 74.6485L72.9232 147.434ZM21.6607 125.911C13.7317 117.982 7.9931 108.692 4.44489 98.793L48.7786 143.127C38.8796 139.579 29.5897 133.84 21.6607 125.911ZM81.9873 146.964C84.9341 146.628 87.8645 146.115 90.7611 145.424L2.14765 56.8105C1.45641 59.7071 0.943148 62.6375 0.60785 65.5843L81.9873 146.964ZM105.409 140.234C103.026 141.377 100.594 142.383 98.1254 143.254L4.31791 49.4462C5.18848 46.9772 6.19492 44.5455 7.33722 42.1626L105.409 140.234ZM111.6 136.89C113.7 135.622 115.75 134.238 117.741 132.74L14.8312 29.8306C13.3334 31.822 11.9501 33.8721 10.6812 35.972L111.6 136.89ZM125.6 125.911C124.736 126.775 123.856 127.613 122.96 128.425L19.1463 24.6112C19.9584 23.7156 20.7965 22.8353 21.6607 21.9712C22.5219 21.11 23.3992 20.2746 24.2915 19.4651L128.107 123.28C127.297 124.172 126.462 125.05 125.6 125.911ZM132.422 118.061C133.926 116.064 135.313 114.007 136.586 111.9L35.6715 10.9857C33.5646 12.2583 31.5078 13.6461 29.5102 15.1491L132.422 118.061ZM142.939 98.4491C142.07 100.91 141.067 103.333 139.929 105.709L41.8629 7.64249C44.2381 6.50437 46.6618 5.50121 49.1225 4.63302L142.939 98.4491ZM145.11 91.086C145.803 88.1866 146.317 85.2534 146.653 82.3037L65.2679 0.918984C62.3182 1.25485 59.385 1.76903 56.4856 2.46155L145.11 91.086ZM146.152 61.9773C146.764 65.7055 147.088 69.4718 147.124 73.2403L74.3313 0.447861C78.0998 0.48357 81.8661 0.807337 85.5943 1.41915L146.152 61.9773ZM142.826 49.1163C139.279 39.2071 133.537 29.9074 125.6 21.9712C117.664 14.0349 108.364 8.29304 98.4553 4.74559L142.826 49.1163Z" fill="url(#paint0_linear_6_69)"/>
<defs>
<linearGradient id="paint0_linear_6_69" x1="-20.2898" y1="160.139" x2="128.27" y2="16.2953" gradientUnits="userSpaceOnUse">
<stop stop-color="#353535"/>
<stop offset="1" stop-color="#353535" stop-opacity="0"/>
</linearGradient>
</defs>
</svg>
