<svg width="60" height="131" viewBox="0 0 60 131" fill="none" xmlns="http://www.w3.org/2000/svg">
<path fill-rule="evenodd" clip-rule="evenodd" d="M-18.4221 154.887C-22.3961 154.849 -26.3679 154.507 -30.2993 153.861L-94.0746 90.0855C-94.7206 86.1541 -95.0626 82.1823 -95.1004 78.2083L-18.4221 154.887ZM-72.4271 132.213C-80.7819 123.859 -86.8281 114.069 -90.5657 103.638L-43.8523 150.352C-54.2831 146.614 -64.0723 140.568 -72.4271 132.213ZM-8.87401 154.391C-5.76918 154.037 -2.68164 153.496 0.370242 152.768L-92.9815 59.416C-93.7101 62.4678 -94.251 65.5554 -94.6044 68.6602L-8.87401 154.391ZM15.8 147.3C13.2899 148.504 10.7284 149.564 8.1276 150.481L-90.6949 51.6586C-89.7777 49.0579 -88.7173 46.4963 -87.5139 43.9862L15.8 147.3ZM22.321 143.777C24.5337 142.44 26.6939 140.982 28.7922 139.404L-79.6174 30.994C-81.1959 33.0923 -82.6537 35.2525 -83.9909 37.4652L22.321 143.777ZM37.066 132.213C36.1573 133.122 35.2316 134.003 34.2901 134.857L-75.0712 25.4961C-74.2172 24.5546 -73.3358 23.6289 -72.4271 22.7203C-71.5165 21.8096 -70.5889 20.9264 -69.6452 20.0707L39.7155 129.431C38.8598 130.375 37.9766 131.303 37.066 132.213ZM44.2611 123.933C45.8428 121.83 47.3032 119.665 48.6425 117.447L-57.661 11.1437C-59.8788 12.483 -62.0439 13.9434 -64.1468 15.5251L44.2611 123.933ZM55.3301 103.285C54.4165 105.875 53.361 108.425 52.1637 110.924L-51.1382 7.62252C-48.6388 6.42518 -46.0883 5.3697 -43.499 4.4561L55.3301 103.285ZM57.6177 95.5288C58.3483 92.4702 58.8905 89.3757 59.2443 86.2639L-26.4777 0.541878C-29.5895 0.895701 -32.684 1.43791 -35.7426 2.16852L57.6177 95.5288ZM58.7173 64.8717C59.3602 68.7919 59.7008 72.7521 59.7391 76.7147L-16.9285 0.0471213C-12.9659 0.0853758 -9.0057 0.425967 -5.08545 1.06889L58.7173 64.8717ZM55.2155 51.3259C51.4788 40.8835 45.429 31.0833 37.066 22.7203C28.703 14.3572 18.9027 8.30739 8.46035 4.5707L55.2155 51.3259Z" fill="url(#paint0_linear_6_338)"/>
<defs>
<linearGradient id="paint0_linear_6_338" x1="-116.619" y1="168.27" x2="39.8781" y2="16.7411" gradientUnits="userSpaceOnUse">
<stop stop-color="#353535"/>
<stop offset="1" stop-color="#353535" stop-opacity="0"/>
</linearGradient>
</defs>
</svg>
