<svg width="51" height="51" viewBox="0 0 51 51" fill="none" xmlns="http://www.w3.org/2000/svg">
<path fill-rule="evenodd" clip-rule="evenodd" d="M24.9766 50.7757C23.6905 50.7635 22.4052 50.6529 21.1329 50.444L0.483095 29.7941C0.27416 28.5218 0.163594 27.2365 0.151391 25.9505L24.9766 50.7757ZM7.49181 43.4353C4.78615 40.7296 2.82834 37.5593 1.6184 34.1811L16.7459 49.3087C13.3678 48.0987 10.1975 46.1409 7.49181 43.4353ZM28.0677 50.615C29.0732 50.5006 30.0731 50.3253 31.0615 50.0893L0.837763 19.8656C0.601759 20.854 0.426517 21.8539 0.312034 22.8594L28.0677 50.615ZM36.0555 48.3194C35.2432 48.7089 34.4143 49.052 33.5728 49.3489L1.57819 17.3543C1.87506 16.5127 2.21822 15.6838 2.60767 14.8716L36.0555 48.3194ZM38.1666 47.1788C38.8832 46.7458 39.5827 46.2737 40.2622 45.7625L5.16462 10.6649C4.65341 11.3444 4.18129 12.0439 3.74826 12.7605L38.1666 47.1788ZM42.94 43.4353C42.646 43.7292 42.3466 44.0143 42.0421 44.2906L6.63649 8.88502C6.91277 8.58045 7.19788 8.28103 7.49181 7.9871C7.78667 7.69224 8.08704 7.40627 8.3926 7.12918L43.7979 42.5345C43.5208 42.84 43.2348 43.1404 42.94 43.4353ZM45.2695 40.7544C45.7818 40.0733 46.2547 39.3721 46.6884 38.6538L12.2733 4.23864C11.555 4.67235 10.8538 5.14533 10.1727 5.65757L45.2695 40.7544ZM48.8529 34.07C48.5573 34.9078 48.2158 35.7331 47.8283 36.542L14.3851 3.09873C15.1939 2.71132 16.0192 2.3698 16.8571 2.07416L48.8529 34.07ZM49.5935 31.5589C49.8301 30.5683 50.0057 29.5661 50.1203 28.5583L22.3688 0.806787C21.361 0.92134 20.3588 1.09693 19.3682 1.33355L49.5935 31.5589ZM49.9492 21.6311C50.1575 22.9007 50.2679 24.1833 50.2803 25.4666L25.4604 0.646726C26.7438 0.659168 28.0264 0.769567 29.296 0.977919L49.9492 21.6311ZM48.8147 17.2449C47.6049 13.8654 45.6466 10.6937 42.94 7.9871C40.2333 5.28045 37.0617 3.32221 33.6822 2.11237L48.8147 17.2449Z" fill="url(#paint0_linear_6_169)"/>
<defs>
<linearGradient id="paint0_linear_6_169" x1="-6.81521" y1="55.1086" x2="43.8504" y2="6.05137" gradientUnits="userSpaceOnUse">
<stop stop-color="#353535"/>
<stop offset="1" stop-color="#353535" stop-opacity="0"/>
</linearGradient>
</defs>
</svg>
